HIERARCHY
ROOT joint_Root
{
	OFFSET 0.0 0.0 0.0
	CHANNELS 6 Xposition Yposition Zposition Zrotation Xrotation Yrotation 
	JOINT Hips
	{
		OFFSET -0.726466 93.3139 -2.00062
		CHANNELS 6 Xposition Yposition Zposition Zrotation Xrotation Yrotation 
		JOINT Spine
		{
			OFFSET 15.7357 0.0 0.0
			CHANNELS 6 Xposition Yposition Zposition Zrotation Xrotation Yrotation 
			JOINT Chest
			{
				OFFSET 8.98455 -0.406207 0.0
				CHANNELS 6 Xposition Yposition Zposition Zrotation Xrotation Yrotation 
				JOINT Neck
				{
					OFFSET 16.3773 0.0 0.0
					CHANNELS 6 Xposition Yposition Zposition Zrotation Xrotation Yrotation 
					JOINT Head
					{
						OFFSET 6.45672 0.0 0.0
						CHANNELS 6 Xposition Yposition Zposition Zrotation Xrotation Yrotation 
						End Site
						{
							OFFSET 0.0 0.0 0.0
						}
					}
				}
				JOINT Shoulder_L
				{
					OFFSET 12.9942 -0.242716 4.98039
					CHANNELS 6 Xposition Yposition Zposition Zrotation Xrotation Yrotation 
					JOINT UpperArm_L
					{
						OFFSET 5.34809 0.0 0.0
						CHANNELS 6 Xposition Yposition Zposition Zrotation Xrotation Yrotation 
						JOINT LowerArm_L
						{
							OFFSET 24.3286 1.87007e-05 0.0
							CHANNELS 6 Xposition Yposition Zposition Zrotation Xrotation Yrotation 
							JOINT Hand_L
							{
								OFFSET 22.2916 0.0 0.0
								CHANNELS 6 Xposition Yposition Zposition Zrotation Xrotation Yrotation 
								End Site
								{
									OFFSET 0.0 0.0 0.0
								}
							}
						}
					}
				}
				JOINT Shoulder_R
				{
					OFFSET 12.9945 -0.242716 -4.98039
					CHANNELS 6 Xposition Yposition Zposition Zrotation Xrotation Yrotation 
					JOINT UpperArm_R
					{
						OFFSET -5.34813 0.0 0.0
						CHANNELS 6 Xposition Yposition Zposition Zrotation Xrotation Yrotation 
						JOINT LowerArm_R
						{
							OFFSET -24.3289 0.000322201 0.0
							CHANNELS 6 Xposition Yposition Zposition Zrotation Xrotation Yrotation 
							JOINT Hand_R
							{
								OFFSET -22.2915 -0.000108084 0.0
								CHANNELS 6 Xposition Yposition Zposition Zrotation Xrotation Yrotation 
								End Site
								{
									OFFSET 0.0 0.0 0.0
								}
							}
						}
					}
				}
			}
		}
		JOINT UpperLeg_L
		{
			OFFSET -2.19248 -6.46944 0.0
			CHANNELS 6 Xposition Yposition Zposition Zrotation Xrotation Yrotation 
			JOINT LowerLeg_L
			{
				OFFSET 39.0811 0.0 -1.23785e-05
				CHANNELS 6 Xposition Yposition Zposition Zrotation Xrotation Yrotation 
				JOINT Foot_L
				{
					OFFSET 40.9854 0.0 -1.26872e-05
					CHANNELS 6 Xposition Yposition Zposition Zrotation Xrotation Yrotation 
					JOINT Toes_L
					{
						OFFSET 11.7543 0.0 0.0
						CHANNELS 6 Xposition Yposition Zposition Zrotation Xrotation Yrotation 
						End Site
						{
							OFFSET 0.0 0.0 0.0
						}
					}
				}
			}
		}
		JOINT UpperLeg_R
		{
			OFFSET -2.19251 6.46944 0.0
			CHANNELS 6 Xposition Yposition Zposition Zrotation Xrotation Yrotation 
			JOINT LowerLeg_R
			{
				OFFSET -39.0811 -0.00228153 -0.0401928
				CHANNELS 6 Xposition Yposition Zposition Zrotation Xrotation Yrotation 
				JOINT Foot_R
				{
					OFFSET -40.9854 0.0 0.0
					CHANNELS 6 Xposition Yposition Zposition Zrotation Xrotation Yrotation 
					JOINT Toes_R
					{
						OFFSET -11.7543 0.0 0.0
						CHANNELS 6 Xposition Yposition Zposition Zrotation Xrotation Yrotation 
						End Site
						{
							OFFSET 0.0 0.0 0.0
						}
					}
				}
			}
		}
	}
}
MOTION
Frames:	6
Frame Time:	0.0333333
0.000000 0.000000 0.000000 0.000000 0.000000 -0.000000 -0.332392 92.007400 -0.114689 87.828700 -2.919900 1.877480 15.735700 0.000005 -0.000001 85.459000 85.646100 -84.868500 8.984550 -0.406207 -0.000000 0.918507 -0.724425 1.185850 16.377300 -0.000001 -0.000001 0.911370 -2.444250 0.379628 6.456720 -0.000001 -0.000000 -0.164483 -1.642870 -3.513710 12.994200 -0.242716 4.980390 -90.008600 0.026040 -71.820300 5.348090 -0.000007 -0.000001 -65.706500 38.854000 -15.262400 24.328600 0.000019 0.000005 2.089670 4.712120 -23.947700 22.291600 -0.000001 0.000005 5.723310 5.538350 -8.167810 12.994500 -0.242716 -4.980390 88.030400 5.468860 -70.158700 -5.348130 -0.000001 -0.000004 -61.168600 44.613700 -12.943300 -24.328900 0.000322 -0.000009 3.075450 4.403500 -34.978600 -22.291500 -0.000108 -0.000004 10.940400 5.617530 -12.456600 -2.192480 -6.469440 -0.000000 -170.001000 -14.728300 -2.216670 39.081100 -0.000007 -0.000012 -0.185189 0.476327 21.245600 40.985400 -0.000006 -0.000013 -5.949490 1.327580 -65.469400 11.754300 -0.000000 0.000003 -0.000052 -0.000589 -16.600400 -2.192510 6.469440 -0.000001 174.242000 19.478800 178.986000 -39.081100 -0.002282 -0.040193 -0.026627 0.088528 18.691600 -40.985400 0.000008 0.000006 -2.997360 3.889800 -63.755100 -11.754300 -0.000006 -0.000006 -0.004807 -0.059582 -18.997200
0.000000 0.000000 0.000000 0.000000 0.000000 -0.000000 -0.309444 91.996400 -0.123265 87.834600 -2.897880 1.910160 15.735700 0.000005 -0.000001 85.169900 85.616800 -84.520700 8.984550 -0.406207 -0.000000 0.974000 -0.776318 1.303870 16.377300 -0.000001 -0.000001 0.972771 -2.462570 0.467444 6.456720 -0.000001 -0.000000 -0.276723 -1.620190 -3.428880 12.994200 -0.242716 4.980390 -90.026300 0.078825 -71.578300 5.348090 -0.000007 -0.000001 -65.598900 37.830100 -15.163500 24.328600 0.000019 0.000005 2.289810 5.044910 -24.451300 22.291600 -0.000001 0.000005 5.991730 5.539520 -8.220640 12.994500 -0.242716 -4.980390 88.133500 5.091250 -69.836000 -5.348130 -0.000001 -0.000004 -58.782100 47.755700 -12.732100 -24.328900 0.000322 -0.000009 5.259310 6.007910 -41.314200 -22.291500 -0.000108 -0.000004 9.983830 5.629380 -13.308700 -2.192480 -6.469440 -0.000000 -170.020000 -14.709700 -2.261430 39.081100 -0.000007 -0.000012 -0.185914 0.475343 21.361500 40.985400 -0.000006 -0.000013 -5.926190 1.337060 -65.516000 11.754300 -0.000000 0.000003 -0.000054 -0.000608 -16.601100 -2.192510 6.469440 -0.000001 174.200000 19.462500 178.995000 -39.081100 -0.002282 -0.040193 -0.029864 0.097794 18.745400 -40.985400 0.000008 0.000006 -3.085760 3.890130 -63.771300 -11.754300 -0.000006 -0.000006 -0.004712 -0.058654 -18.959400
0.000000 0.000000 0.000000 0.000000 0.000000 -0.000000 -0.286143 92.012600 -0.183445 87.868200 -2.859410 1.870290 15.735700 0.000005 -0.000001 84.942300 85.610100 -84.236000 8.984550 -0.406207 -0.000000 0.985036 -0.815486 1.418550 16.377300 -0.000001 -0.000001 0.983533 -2.532910 0.520590 6.456720 -0.000001 -0.000000 -0.306703 -1.642270 -3.254750 12.994200 -0.242716 4.980390 -90.059800 0.177433 -71.391000 5.348090 -0.000007 -0.000001 -64.927500 36.424000 -15.279700 24.328600 0.000019 0.000005 2.541150 5.431510 -25.119400 22.291600 -0.000001 0.000005 5.996540 5.539600 -8.224710 12.994500 -0.242716 -4.980390 88.254600 4.667680 -69.470700 -5.348130 -0.000001 -0.000004 -56.245300 50.212800 -12.095800 -24.328900 0.000322 -0.000009 8.715210 7.631990 -49.085000 -22.291500 -0.000108 -0.000004 8.333140 5.639170 -14.063100 -2.192480 -6.469440 -0.000000 -170.091000 -14.735400 -2.315300 39.081100 -0.000007 -0.000012 -0.183722 0.471687 21.281100 40.985400 -0.000006 -0.000013 -5.894540 1.359010 -65.431200 11.754300 -0.000000 0.000003 -0.000051 -0.000581 -16.600100 -2.192510 6.469440 -0.000001 174.211000 19.351400 178.918000 -39.081100 -0.002282 -0.040193 -0.026601 0.088342 18.713200 -40.985400 0.000008 0.000006 -2.987750 3.757140 -63.732000 -11.754300 -0.000006 -0.000006 -0.004756 -0.059086 -18.977000
0.000000 0.000000 0.000000 0.000000 0.000000 -0.000000 -0.270362 92.006200 -0.210109 87.885900 -2.770560 1.960500 15.735700 0.000005 -0.000001 84.379100 85.554500 -83.614000 8.984550 -0.406207 -0.000000 1.089040 -0.915046 1.537730 16.377300 -0.000001 -0.000001 1.022610 -2.639970 0.559916 6.456720 -0.000001 -0.000000 -0.331245 -1.661480 -3.028490 12.994200 -0.242716 4.980390 -90.085400 0.251146 -71.225800 5.348090 -0.000007 -0.000001 -63.205800 35.076000 -16.007000 24.328600 0.000019 0.000005 2.632640 5.502710 -25.616700 22.291600 -0.000001 0.000005 6.114350 5.537960 -8.150120 12.994500 -0.242716 -4.980390 88.440100 4.092390 -69.113800 -5.348130 -0.000001 -0.000004 -53.611100 52.377600 -11.468000 -24.328900 0.000322 -0.000009 10.949800 7.278280 -56.784700 -22.291500 -0.000108 -0.000004 6.620550 5.641130 -14.224400 -2.192480 -6.469440 -0.000000 -170.100000 -14.722100 -2.309530 39.081100 -0.000007 -0.000012 -0.183256 0.468476 21.364400 40.985400 -0.000006 -0.000013 -5.854650 1.456580 -65.438200 11.754300 -0.000000 0.000003 -0.000047 -0.000537 -16.598400 -2.192510 6.469440 -0.000001 174.167000 19.302300 178.973000 -39.081100 -0.002282 -0.040193 -0.027460 0.090583 18.769600 -40.985400 0.000008 0.000006 -3.089140 3.615690 -63.743300 -11.754300 -0.000006 -0.000006 -0.004822 -0.059729 -19.003200
0.000000 0.000000 0.000000 0.000000 0.000000 -0.000000 -0.258490 92.010300 -0.268489 87.919700 -2.770240 2.032670 15.735700 0.000005 -0.000001 83.866400 85.506300 -83.036500 8.984550 -0.406207 -0.000000 1.177900 -1.007540 1.668790 16.377300 -0.000001 -0.000001 1.032600 -2.711570 0.566798 6.456720 -0.000001 -0.000000 -0.280427 -1.646250 -2.791940 12.994200 -0.242716 4.980390 -90.129600 0.377056 -71.034900 5.348090 -0.000007 -0.000001 -60.528400 33.234500 -17.296100 24.328600 0.000019 0.000005 2.840070 5.892980 -25.789000 22.291600 -0.000001 0.000005 6.423610 5.534240 -7.983190 12.994500 -0.242716 -4.980390 88.683000 3.397850 -68.798400 -5.348130 -0.000001 -0.000004 -50.787900 54.290700 -11.122100 -24.328900 0.000322 -0.000009 11.054000 5.567160 -63.599600 -22.291500 -0.000108 -0.000004 4.410020 5.640730 -14.180500 -2.192480 -6.469440 -0.000000 -170.124000 -14.740900 -2.259900 39.081100 -0.000007 -0.000012 -0.183541 0.469681 21.344700 40.985400 -0.000006 -0.000013 -5.840500 1.468480 -65.395700 11.754300 -0.000000 0.000003 -0.000054 -0.000607 -16.601100 -2.192510 6.469440 -0.000001 174.131000 19.220900 178.977000 -39.081100 -0.002282 -0.040193 -0.027736 0.091171 18.812700 -40.985400 0.000008 0.000006 -3.099990 3.535330 -63.726300 -11.754300 -0.000006 -0.000006 -0.004774 -0.059261 -18.984100
0.000000 0.000000 0.000000 0.000000 0.000000 -0.000000 -0.272703 92.003300 -0.315521 87.927900 -2.725110 2.204490 15.735700 0.000005 -0.000001 83.094400 85.409700 -82.177400 8.984550 -0.406207 -0.000000 1.358070 -1.154530 1.846120 16.377300 -0.000001 -0.000001 1.046460 -2.761550 0.551406 6.456720 -0.000001 -0.000000 -0.251321 -1.622530 -2.497210 12.994200 -0.242716 4.980390 -90.138300 0.398406 -70.852000 5.348090 -0.000007 -0.000001 -57.711700 30.188500 -18.797700 24.328600 0.000019 0.000005 2.749180 5.801300 -25.409700 22.291600 -0.000001 0.000005 7.145980 5.539490 -8.216940 12.994500 -0.242716 -4.980390 88.891300 2.827130 -68.577000 -5.348130 -0.000001 -0.000004 -47.657900 55.862600 -10.917900 -24.328900 0.000322 -0.000009 11.108800 4.089690 -70.041800 -22.291500 -0.000108 -0.000004 1.981240 5.636340 -13.822100 -2.192480 -6.469440 -0.000000 -170.080000 -14.736300 -2.173790 39.081100 -0.000007 -0.000012 -0.184748 0.470830 21.424700 40.985400 -0.000006 -0.000013 -5.830530 1.530270 -65.385100 11.754300 -0.000000 0.000003 -0.000055 -0.000618 -16.601500 -2.192510 6.469440 -0.000001 174.073000 19.258000 179.092000 -39.081100 -0.002282 -0.040193 -0.029257 0.095108 18.909600 -40.985400 0.000008 0.000006 -3.099180 3.528390 -63.755200 -11.754300 -0.000006 -0.000006 -0.004987 -0.061339 -19.068800
